<?xml version="1.0" standalone="no"?>
<!DOCTYPE svg PUBLIC "-//W3C//DTD SVG 20010904//EN"
 "http://www.w3.org/TR/2001/REC-SVG-20010904/DTD/svg10.dtd">
<svg version="1.0" xmlns="http://www.w3.org/2000/svg"
 width="512.000000pt" height="512.000000pt" viewBox="0 0 512.000000 512.000000"
 preserveAspectRatio="xMidYMid meet">
<metadata>
Created by potrace 1.14, written by Peter Selinger 2001-2017
</metadata>
<g transform="translate(0.000000,512.000000) scale(0.100000,-0.100000)"
fill="#000000" stroke="none">
<path d="M1465 3726 c-95 -38 -110 -47 -113 -68 -3 -23 7 -29 120 -77 l123
-51 818 0 817 0 0 120 0 120 -827 -1 -828 0 -110 -43z"/>
<path d="M3350 3645 l0 -125 73 0 c134 0 177 25 185 110 10 107 -29 140 -168
140 l-90 0 0 -125z"/>
<path d="M759 3067 c-123 -99 -214 -180 -213 -189 2 -19 83 -128 96 -128 20 0
167 112 208 157 39 46 41 46 34 18 -4 -16 -9 -211 -11 -432 l-4 -403 -129 0
-130 0 0 -105 0 -105 375 0 375 0 0 105 0 105 -125 0 -125 0 -2 573 -3 572
-66 3 -66 3 -214 -174z"/>
<path d="M4045 3225 c-99 -22 -245 -97 -245 -126 0 -5 20 -45 45 -89 l46 -78
55 33 c96 58 215 69 288 27 43 -24 76 -93 76 -157 0 -64 -45 -192 -101 -291
-58 -100 -204 -293 -323 -426 l-96 -108 0 -65 0 -65 400 0 400 0 0 105 0 105
-190 0 c-104 0 -212 -5 -240 -11 -74 -16 -79 -8 -21 36 126 96 333 416 392
605 34 109 33 244 -3 321 -73 160 -264 233 -483 184z"/>
<path d="M2061 3153 c19 -32 102 -179 185 -326 l152 -269 -190 -316 c-105
-174 -197 -326 -205 -339 l-15 -23 143 0 144 0 118 207 c65 113 128 234 140
269 12 35 24 64 27 64 3 0 15 -28 27 -62 12 -35 75 -156 140 -270 l117 -208
153 0 c84 0 153 2 153 4 0 3 -90 158 -199 346 l-199 341 189 315 c104 174 189
317 189 320 0 2 -64 3 -141 2 l-142 -3 -103 -185 c-57 -102 -114 -216 -127
-255 l-24 -70 -17 55 c-10 30 -66 146 -124 258 l-107 202 -158 0 -158 0 32
-57z"/>
</g>
</svg>
