<?xml version="1.0" encoding="UTF-8" standalone="no"?> <!-- Created with Vectornator for iOS (http://vectornator.io/) --><!DOCTYPE svg PUBLIC "-//W3C//DTD SVG 1.1//EN" "http://www.w3.org/Graphics/SVG/1.1/DTD/svg11.dtd">
<svg style="fill-rule:nonzero;clip-rule:evenodd;stroke-linecap:round;stroke-linejoin:round;" xmlns:xlink="http://www.w3.org/1999/xlink" xmlns="http://www.w3.org/2000/svg" version="1.1" height="100%" viewBox="0 0 372.187 384.408" width="100%" xml:space="preserve" xmlns:vectornator="http://vectornator.io">
<metadata>
<vectornator:setting value="false" key="WDSnapToEdges"/>
<vectornator:setting value="Points" key="WDUnits"/>
<vectornator:setting value="false" key="WDSnapToPoints"/>
<vectornator:setting value="false" key="WDCMYKEnabledKey"/>
<vectornator:setting key="VNDimensionsVisible" value="true"/>
<vectornator:setting key="WDOutlineMode" value="false"/>
<vectornator:setting key="WDRulersVisible" value="true"/>
<vectornator:setting key="WDDynamicGuides" value="false"/>
<vectornator:setting key="VNSnapToGuides" value="true"/>
<vectornator:setting key="WDIsolateActiveLayer" value="false"/>
<vectornator:setting value="false" key="IsTimeLapseWatermarkDisabled"/>
<vectornator:setting key="WDDisplayWhiteBackground" value="false"/>
<vectornator:setting key="UndoHistoryDisabled" value="true"/>
<vectornator:setting value="true" key="WDGuidesVisible"/>
<vectornator:setting key="WDSnapToGrid" value="false"/>
</metadata>
<defs/>
<g id="Layer 3" vectornator:layerName="Layer 3">
<path d="M48.9911+5.87017L312.978+5.87017L312.978+378.218L48.9911+378.218L48.9911+5.87017Z" fill="#ffffff" opacity="1"/>
</g>
<g vectornator:layerName="Layer 1" id="Layer 1">
<path fill-rule="evenodd" fill="#ffffff" stroke-width="2" stroke-linecap="butt" stroke-linejoin="miter" fill-opacity="0" stroke="#000000" opacity="1" d="M53.3701+5.11277L308.485+5.11277C311.049+5.11277+313.128+7.49872+313.128+10.442L313.128+373.966C313.128+376.909+311.049+379.295+308.485+379.295L53.3701+379.295C50.8061+379.295+48.7276+376.909+48.7276+373.966L48.7276+10.442C48.7276+7.49872+50.8061+5.11277+53.3701+5.11277Z"/>
<path stroke-linejoin="miter" stroke-width="4.20656" stroke-linecap="butt" d="M109.941+4.65084L109.93+80.8756L109.886+378.67" fill="none" opacity="1" stroke="#000000"/>
<path stroke="#000000" opacity="1" stroke-linecap="butt" fill="none" stroke-linejoin="miter" d="M174.54+4.48777L174.477+379.92" stroke-width="4.20656"/>
<path stroke-width="4.20656" stroke="#000000" d="M247.02+4.48777L246.995+155.139" fill="none" stroke-linecap="butt" opacity="1" stroke-linejoin="miter"/>
<path fill="none" stroke-linejoin="miter" opacity="1" stroke="#000000" stroke-width="4.20656" stroke-linecap="butt" d="M313.758+58.225L275.031+58.2178L263.029+58.2156L146.634+58.1955L50.335+58.1788"/>
<path d="M315.216+122.564L276.274+122.553L264.206+122.55L147.167+122.521L50.335+122.496" opacity="1" stroke-linejoin="miter" stroke="#000000" stroke-width="4.20656" fill="none" stroke-linecap="butt"/>
<path fill="none" stroke="#000000" opacity="1" d="M208.477+191.552L145.559+191.536L48.7276+191.512" stroke-linejoin="miter" stroke-linecap="butt" stroke-width="4.20656"/>
<path opacity="1" stroke-width="4.20656" d="M313.608+191.579L279.214+191.57" stroke-linejoin="miter" stroke="#000000" stroke-linecap="butt" fill="none"/>
<path fill="none" stroke-width="4.20656" stroke-linejoin="miter" opacity="1" stroke-linecap="butt" stroke="#000000" d="M315.216+251.906L276.274+251.895L264.206+251.892L147.167+251.862L50.335+251.838"/>
<path stroke="#000000" d="M313.885+316.037L274.943+316.026L262.875+316.023L145.835+315.994L49.0038+315.969" stroke-linejoin="miter" fill="none" stroke-linecap="butt" stroke-width="4.20656" opacity="1"/>
<path fill="#000000" fill-rule="evenodd" d="M73.8827+82.7838L68.4927+82.7838L68.4927+74.6498L83.4867+74.6498L83.4867+111.596L73.8827+111.596L73.8827+82.7838Z" opacity="1"/>
<path fill-rule="evenodd" fill="#000000" d="M137.003+24.8608L131.613+24.8608L131.613+16.7268L146.607+16.7268L146.607+53.6728L137.003+53.6728L137.003+24.8608Z" opacity="1"/>
<path fill-rule="evenodd" opacity="1" fill="#000000" d="M203.209+33.7812L191.694+16.5332L203.552+16.5332L208.55+26.0882L214.724+16.5332L226.582+16.5332L214.381+33.7812L228.15+53.4792L216.439+53.4792L209.04+41.4252L200.367+53.4792L188.754+53.4792L203.209+33.7812Z"/>
<path fill-rule="evenodd" d="M92.0127+179.44L62.2697+179.44L71.4327+169.934C73.8501+167.419+75.7447+165.287+77.1167+163.54C78.4887+161.792+79.5096+160.314+80.1792+159.105C80.8489+157.896+81.2654+156.916+81.4287+156.165C81.5921+155.414+81.6737+154.777+81.6737+154.254C81.6737+153.699+81.5839+153.16+81.4042+152.637C81.2246+152.114+80.9551+151.649+80.5957+151.241C80.2364+150.832+79.8036+150.506+79.2972+150.261C78.7909+150.016+78.1947+149.893+77.5087+149.893C76.2021+149.893+75.1812+150.318+74.4462+151.167C73.7112+152.016+73.3437+153.078+73.3437+154.352C73.3437+154.711+73.3927+155.234+73.4907+155.92L63.0047+155.92C63.0047+153.764+63.3559+151.804+64.0582+150.04C64.7606+148.276+65.7487+146.757+67.0227+145.483C68.2967+144.209+69.8076+143.229+71.5552+142.543C73.3029+141.857+75.2221+141.514+77.3127+141.514C79.3707+141.514+81.2736+141.841+83.0212+142.494C84.7689+143.147+86.2797+144.062+87.5537+145.238C88.8277+146.414+89.8241+147.811+90.5427+149.428C91.2614+151.045+91.6207+152.8+91.6207+154.695C91.6207+156.72+91.1879+158.591+90.3222+160.306C89.4566+162.021+88.0764+163.776+86.1817+165.573L80.0567+171.306L92.0127+171.306L92.0127+179.44Z" opacity="1" fill="#000000"/>
<path opacity="1" d="M293.208+53.1482L263.465+53.1482L272.628+43.6422C275.045+41.1269+276.94+38.9954+278.312+37.2477C279.684+35.5+280.705+34.0219+281.375+32.8132C282.044+31.6045+282.461+30.6245+282.624+29.8732C282.787+29.1219+282.869+28.4849+282.869+27.9622C282.869+27.4069+282.779+26.8679+282.6+26.3452C282.42+25.8225+282.15+25.357+281.791+24.9487C281.432+24.5404+280.999+24.2137+280.493+23.9687C279.986+23.7237+279.39+23.6012+278.704+23.6012C277.397+23.6012+276.377+24.0259+275.642+24.8752C274.907+25.7245+274.539+26.7862+274.539+28.0602C274.539+28.4195+274.588+28.9422+274.686+29.6282L264.2+29.6282C264.2+27.4722+264.551+25.5122+265.254+23.7482C265.956+21.9842+266.944+20.4652+268.218+19.1912C269.492+17.9172+271.003+16.9372+272.751+16.2512C274.498+15.5652+276.417+15.2222+278.508+15.2222C280.566+15.2222+282.469+15.5489+284.217+16.2022C285.964+16.8555+287.475+17.7702+288.749+18.9462C290.023+20.1222+291.019+21.5187+291.738+23.1357C292.457+24.7527+292.816+26.5085+292.816+28.4032C292.816+30.4285+292.383+32.2987+291.518+34.0137C290.652+35.7287+289.272+37.4845+287.377+39.2812L281.252+45.0142L293.208+45.0142L293.208+53.1482Z" fill-rule="evenodd" fill="#000000"/>
<path d="M75.5487+221.037C75.8101+221.069+76.0306+221.086+76.2102+221.086C76.3899+221.086+76.5451+221.086+76.6757+221.086C77.8844+221.086+78.8644+220.726+79.6157+220.008C80.3671+219.289+80.7427+218.358+80.7427+217.215C80.7427+216.104+80.3916+215.206+79.6892+214.52C78.9869+213.834+78.0804+213.491+76.9697+213.491C75.7937+213.491+74.8464+213.883+74.1277+214.667C73.4091+215.451+73.0497+216.463+73.0497+217.705L64.1807+217.705C64.4094+215.777+64.8912+214.062+65.6262+212.56C66.3612+211.057+67.3004+209.791+68.4437+208.762C69.5871+207.733+70.9264+206.949+72.4617+206.41C73.9971+205.871+75.6957+205.602+77.5577+205.602C79.3871+205.602+81.0449+205.855+82.5312+206.361C84.0176+206.868+85.2916+207.586+86.3532+208.517C87.4149+209.448+88.2316+210.575+88.8032+211.898C89.3749+213.221+89.6607+214.699+89.6607+216.333C89.6607+218.097+89.3259+219.542+88.6562+220.669C87.9866+221.796+87.0311+222.768+85.7897+223.585C87.6844+224.173+89.1626+225.226+90.2242+226.745C91.2859+228.264+91.8167+230.134+91.8167+232.356C91.8167+234.185+91.4574+235.851+90.7387+237.354C90.0201+238.856+89.0156+240.147+87.7252+241.225C86.4349+242.303+84.8996+243.136+83.1192+243.724C81.3389+244.312+79.3871+244.606+77.2637+244.606C74.4217+244.606+71.8574+244.05+69.5707+242.94C67.2841+241.829+65.4547+240.065+64.0827+237.648C63.4621+236.57+63.0456+235.492+62.8332+234.414C62.6209+233.336+62.5147+232.241+62.5147+231.131L72.0207+231.131C72.0861+232.862+72.5924+234.177+73.5397+235.075C74.4871+235.974+75.7611+236.423+77.3617+236.423C79.0604+236.423+80.3017+235.965+81.0857+235.051C81.8697+234.136+82.2617+233.009+82.2617+231.67C82.2617+230.069+81.7881+228.86+80.8407+228.044C79.8934+227.227+78.7664+226.819+77.4597+226.819C77.1331+226.819+76.8227+226.843+76.5287+226.892C76.2347+226.941+75.9081+226.998+75.5487+227.064L75.5487+221.037Z" fill-rule="evenodd" fill="#000000" opacity="1"/>
<path fill="#000000" d="M79.4197+286.451L79.4197+271.898L70.9427+286.451L79.4197+286.451ZM88.3377+286.451L92.7967+286.451L92.7967+293.801L88.3377+293.801L88.3377+301.396L79.4197+301.396L79.4197+293.801L61.5837+293.801L61.5837+287.627L75.6957+264.45L88.3377+264.45L88.3377+286.451Z" opacity="1" fill-rule="evenodd"/>
<path fill-rule="evenodd" d="M88.3377+337.654L75.5487+337.654L74.9117+341.721C75.4997+341.655+76.0387+341.598+76.5287+341.549C77.0187+341.5+77.5251+341.476+78.0477+341.476C79.9097+341.476+81.6411+341.802+83.2417+342.456C84.8424+343.109+86.2144+344.007+87.3577+345.151C88.5011+346.294+89.3994+347.666+90.0527+349.267C90.7061+350.867+91.0327+352.615+91.0327+354.51C91.0327+356.502+90.6652+358.299+89.9302+359.9C89.1952+361.5+88.1581+362.864+86.8187+363.991C85.4794+365.118+83.8461+365.984+81.9187+366.588C79.9914+367.193+77.8517+367.495+75.4997+367.495C73.2784+367.495+71.1632+367.225+69.1542+366.686C67.1452+366.147+65.2587+365.322+63.4947+364.212L64.9157+355.196C66.5491+356.6+68.2151+357.67+69.9137+358.405C71.6124+359.14+73.2294+359.508+74.7647+359.508C76.7247+359.508+78.2764+358.977+79.4197+357.915C80.5631+356.854+81.1347+355.539+81.1347+353.971C81.1347+352.141+80.3671+350.663+78.8317+349.536C77.2964+348.409+75.2874+347.846+72.8047+347.846C71.6941+347.846+70.5507+347.968+69.3747+348.213C68.1987+348.458+67.0391+348.842+65.8957+349.365L68.9827+329.52L88.3377+329.52L88.3377+337.654Z" opacity="1" fill="#000000"/>
<path stroke-linecap="butt" stroke-linejoin="miter" d="M247.004+254.195L246.97+380.117" opacity="1" stroke="#000000" fill="none" stroke-width="4.20656"/>
</g>
<g vectornator:layerName="Layer 2" id="Layer 2">
<path fill-rule="evenodd" d="M247.561+152.464C220.694+152.464+198.711+174.839+198.711+202.185C198.711+229.531+220.694+251.906+247.561+251.906C274.429+251.906+296.411+229.531+296.411+202.185C296.411+174.839+274.429+152.464+247.561+152.464ZM236.602+223.127L221.101+207.349C217.95+204.142+217.95+198.955+221.101+195.748L221.101+195.748C224.251+192.541+229.348+192.541+232.499+195.748L241.455+204.863L262.623+183.317C265.774+180.11+270.87+180.11+274.021+183.317L274.021+183.317C277.172+186.524+277.172+191.712+274.021+194.919L246.307+223.127C243.629+225.854+239.281+225.854+236.602+223.127Z" opacity="1" fill="#000000"/>
</g>
</svg>
