<?xml version="1.0" encoding="UTF-8" standalone="no"?> <!-- Created with Vectornator for iOS (http://vectornator.io/) --><!DOCTYPE svg PUBLIC "-//W3C//DTD SVG 1.1//EN" "http://www.w3.org/Graphics/SVG/1.1/DTD/svg11.dtd">
<svg xmlns:vectornator="http://vectornator.io" viewBox="0 0 372.187 384.408" xml:space="preserve" width="100%" version="1.1" xmlns="http://www.w3.org/2000/svg" xmlns:xlink="http://www.w3.org/1999/xlink" height="100%" style="fill-rule:nonzero;clip-rule:evenodd;stroke-linecap:round;stroke-linejoin:round;">
<metadata>
<vectornator:setting value="false" key="WDSnapToGrid"/>
<vectornator:setting key="VNSnapToGuides" value="true"/>
<vectornator:setting value="true" key="UndoHistoryDisabled"/>
<vectornator:setting value="false" key="WDSnapToPoints"/>
<vectornator:setting value="false" key="WDIsolateActiveLayer"/>
<vectornator:setting key="WDSnapToEdges" value="false"/>
<vectornator:setting key="WDDisplayWhiteBackground" value="false"/>
<vectornator:setting key="VNDimensionsVisible" value="true"/>
<vectornator:setting value="true" key="WDGuidesVisible"/>
<vectornator:setting value="Points" key="WDUnits"/>
<vectornator:setting key="IsTimeLapseWatermarkDisabled" value="false"/>
<vectornator:setting key="WDDynamicGuides" value="false"/>
<vectornator:setting key="WDCMYKEnabledKey" value="false"/>
<vectornator:setting value="true" key="WDRulersVisible"/>
<vectornator:setting key="WDOutlineMode" value="false"/>
</metadata>
<defs/>
<g id="Layer 2" vectornator:layerName="Layer 2">
<path d="M54.2119+5.28101L317.832+5.28101L317.832+157.85L317.832+378.799L54.2119+378.799L54.2119+5.28101Z" fill="#ffffff" opacity="1"/>
</g>
<g vectornator:layerName="Layer 3" id="Layer 3">
<path d="M283.226+128.873L282.018+127.664C281.213+126.859+280.407+126.456+279.199+126.456C253.425+126.456+258.661+148.606+251.009+153.438C243.357+158.271+251.009+162.298+252.217+161.09C264.701+148.606+259.063+134.511+277.991+134.511L283.226+128.873Z" fill-rule="evenodd" opacity="1" fill="#000000"/>
<path opacity="1" d="M248.19+150.619C244.854+150.619+242.149+153.324+242.149+156.66C242.149+159.996+244.854+162.701+248.19+162.701C251.526+162.701+254.231+159.996+254.231+156.66C254.231+153.324+251.526+150.619+248.19+150.619Z" fill-rule="evenodd" fill="#000000"/>
<path fill="#000000" d="M307.974+153.404L252.161+209.219L231.658+188.716L287.47+132.902L307.974+153.404Z" fill-rule="evenodd" opacity="1"/>
<path fill-rule="evenodd" d="M233.29+195.321L245.774+207.805L226.443+217.067L224.027+214.651L233.29+195.321M232.081+188.474L219.195+215.456L225.638+221.9L252.62+209.013L232.081+188.474L232.081+188.474ZM309+144.981L312.222+141.759C315.846+138.135+315.846+132.497+312.222+129.275L312.222+129.275C308.597+125.651+302.959+125.651+299.737+129.275L296.516+132.497L304.018+139.999L309+144.981Z" opacity="1" fill="#000000"/>
<path fill="#000000" d="M221.611+212.637L217.986+221.497C217.584+222.302+218.389+223.511+219.597+223.108L228.457+219.483L221.611+212.637Z" opacity="1" fill-rule="evenodd"/>
<path opacity="1" fill-rule="evenodd" d="M227.658+217.681L230.058+210.629" fill="#000000"/>
<path opacity="1" fill-rule="evenodd" fill="#000000" d="M220.203+219.918L233.642+194.648L246.977+208.504L220.203+219.918Z"/>
</g>
<g id="Layer 1" vectornator:layerName="Layer 1">
<g opacity="1">
<path stroke-width="2" fill-rule="evenodd" fill="#ffffff" stroke="#000000" stroke-linecap="butt" fill-opacity="0" stroke-linejoin="miter" d="M58.0082+4.48777L313.123+4.48777C315.688+4.48777+317.766+6.87372+317.766+9.81696L317.766+373.341C317.766+376.284+315.688+378.67+313.123+378.67L58.0082+378.67C55.4442+378.67+53.3657+376.284+53.3657+373.341L53.3657+9.81696C53.3657+6.87372+55.4442+4.48777+58.0082+4.48777Z" opacity="1"/>
<path stroke-linejoin="miter" stroke-width="4.20656" fill="none" opacity="1" stroke-linecap="butt" stroke="#000000" d="M114.063+4.65084L114.052+80.8756L114.008+378.67"/>
<path d="M178.661+4.48777L178.599+379.92" opacity="1" stroke-linecap="butt" stroke-width="4.20656" stroke="#000000" stroke-linejoin="miter" fill="none"/>
<path opacity="1" fill="none" stroke-width="4.20656" stroke-linejoin="miter" stroke="#000000" d="M251.142+4.48777L251.079+379.92" stroke-linecap="butt"/>
<path stroke-linejoin="miter" stroke="#000000" stroke-linecap="butt" d="M317.88+58.225L279.152+58.2178L267.15+58.2156L150.756+58.1955L54.457+58.1788" fill="none" stroke-width="4.20656" opacity="1"/>
<path stroke-linecap="butt" fill="none" stroke="#000000" d="M319.338+122.564L280.396+122.553L268.327+122.55L151.289+122.521L54.457+122.496" stroke-width="4.20656" opacity="1" stroke-linejoin="miter"/>
<path stroke-width="4.20656" stroke-linecap="butt" fill="none" opacity="1" stroke="#000000" stroke-linejoin="miter" d="M317.73+191.579L278.788+191.568L266.719+191.565L149.681+191.536L52.8495+191.512"/>
<path stroke="#000000" stroke-linejoin="miter" stroke-linecap="butt" opacity="1" stroke-width="4.20656" fill="none" d="M319.338+251.906L280.396+251.895L268.327+251.892L151.289+251.862L54.457+251.838"/>
<path d="M318.007+316.037L279.064+316.026L266.997+316.023L149.957+315.994L53.1257+315.969" stroke-width="4.20656" stroke-linejoin="miter" opacity="1" stroke-linecap="butt" stroke="#000000" fill="none"/>
<path fill-rule="evenodd" opacity="1" fill="#000000" d="M78.0046+82.7838L72.6146+82.7838L72.6146+74.6498L87.6086+74.6498L87.6086+111.596L78.0046+111.596L78.0046+82.7838Z"/>
<path d="M141.125+24.8608L135.735+24.8608L135.735+16.7268L150.729+16.7268L150.729+53.6728L141.125+53.6728L141.125+24.8608Z" opacity="1" fill-rule="evenodd" fill="#000000"/>
<path d="M207.331+33.7812L195.816+16.5332L207.674+16.5332L212.672+26.0882L218.846+16.5332L230.704+16.5332L218.503+33.7812L232.271+53.4792L220.561+53.4792L213.161+41.4252L204.489+53.4792L192.876+53.4792L207.331+33.7812Z" opacity="1" fill="#000000" fill-rule="evenodd"/>
<path d="M96.1346+179.44L66.3916+179.44L75.5546+169.934C77.972+167.419+79.8666+165.287+81.2386+163.54C82.6106+161.792+83.6315+160.314+84.3011+159.105C84.9708+157.896+85.3873+156.916+85.5506+156.165C85.714+155.414+85.7956+154.777+85.7956+154.254C85.7956+153.699+85.7058+153.16+85.5261+152.637C85.3465+152.114+85.077+151.649+84.7176+151.241C84.3583+150.832+83.9255+150.506+83.4191+150.261C82.9128+150.016+82.3166+149.893+81.6306+149.893C80.324+149.893+79.3031+150.318+78.5681+151.167C77.8331+152.016+77.4656+153.078+77.4656+154.352C77.4656+154.711+77.5146+155.234+77.6126+155.92L67.1266+155.92C67.1266+153.764+67.4778+151.804+68.1801+150.04C68.8825+148.276+69.8706+146.757+71.1446+145.483C72.4186+144.209+73.9295+143.229+75.6771+142.543C77.4248+141.857+79.344+141.514+81.4346+141.514C83.4926+141.514+85.3955+141.841+87.1431+142.494C88.8908+143.147+90.4016+144.062+91.6756+145.238C92.9496+146.414+93.946+147.811+94.6646+149.428C95.3833+151.045+95.7426+152.8+95.7426+154.695C95.7426+156.72+95.3098+158.591+94.4441+160.306C93.5785+162.021+92.1983+163.776+90.3036+165.573L84.1786+171.306L96.1346+171.306L96.1346+179.44Z" opacity="1" fill-rule="evenodd" fill="#000000"/>
<path opacity="1" d="M297.329+53.1482L267.587+53.1482L276.749+43.6422C279.167+41.1269+281.062+38.9954+282.434+37.2477C283.805+35.5+284.827+34.0219+285.497+32.8132C286.165+31.6045+286.583+30.6245+286.745+29.8732C286.909+29.1219+286.991+28.4849+286.991+27.9622C286.991+27.4069+286.9+26.8679+286.721+26.3452C286.542+25.8225+286.271+25.357+285.913+24.9487C285.553+24.5404+285.12+24.2137+284.615+23.9687C284.107+23.7237+283.512+23.6012+282.826+23.6012C281.519+23.6012+280.499+24.0259+279.764+24.8752C279.029+25.7245+278.661+26.7862+278.661+28.0602C278.661+28.4195+278.71+28.9422+278.807+29.6282L268.322+29.6282C268.322+27.4722+268.673+25.5122+269.376+23.7482C270.077+21.9842+271.066+20.4652+272.34+19.1912C273.614+17.9172+275.124+16.9372+276.872+16.2512C278.62+15.5652+280.538+15.2222+282.63+15.2222C284.688+15.2222+286.59+15.5489+288.339+16.2022C290.085+16.8555+291.596+17.7702+292.87+18.9462C294.145+20.1222+295.141+21.5187+295.859+23.1357C296.579+24.7527+296.938+26.5085+296.938+28.4032C296.938+30.4285+296.505+32.2987+295.639+34.0137C294.773+35.7287+293.394+37.4845+291.499+39.2812L285.374+45.0142L297.329+45.0142L297.329+53.1482Z" fill="#000000" fill-rule="evenodd"/>
<path d="M79.6706+221.037C79.932+221.069+80.1525+221.086+80.3321+221.086C80.5118+221.086+80.667+221.086+80.7976+221.086C82.0063+221.086+82.9863+220.726+83.7376+220.008C84.489+219.289+84.8646+218.358+84.8646+217.215C84.8646+216.104+84.5135+215.206+83.8111+214.52C83.1088+213.834+82.2023+213.491+81.0916+213.491C79.9156+213.491+78.9683+213.883+78.2496+214.667C77.531+215.451+77.1716+216.463+77.1716+217.705L68.3026+217.705C68.5313+215.777+69.0131+214.062+69.7481+212.56C70.4831+211.057+71.4223+209.791+72.5656+208.762C73.709+207.733+75.0483+206.949+76.5836+206.41C78.119+205.871+79.8176+205.602+81.6796+205.602C83.509+205.602+85.1668+205.855+86.6531+206.361C88.1395+206.868+89.4135+207.586+90.4751+208.517C91.5368+209.448+92.3535+210.575+92.9251+211.898C93.4968+213.221+93.7826+214.699+93.7826+216.333C93.7826+218.097+93.4478+219.542+92.7781+220.669C92.1085+221.796+91.153+222.768+89.9116+223.585C91.8063+224.173+93.2845+225.226+94.3461+226.745C95.4078+228.264+95.9386+230.134+95.9386+232.356C95.9386+234.185+95.5793+235.851+94.8606+237.354C94.142+238.856+93.1375+240.147+91.8471+241.225C90.5568+242.303+89.0215+243.136+87.2411+243.724C85.4608+244.312+83.509+244.606+81.3856+244.606C78.5436+244.606+75.9793+244.05+73.6926+242.94C71.406+241.829+69.5766+240.065+68.2046+237.648C67.584+236.57+67.1675+235.492+66.9551+234.414C66.7428+233.336+66.6366+232.241+66.6366+231.131L76.1426+231.131C76.208+232.862+76.7143+234.177+77.6616+235.075C78.609+235.974+79.883+236.423+81.4836+236.423C83.1823+236.423+84.4236+235.965+85.2076+235.051C85.9916+234.136+86.3836+233.009+86.3836+231.67C86.3836+230.069+85.91+228.86+84.9626+228.044C84.0153+227.227+82.8883+226.819+81.5816+226.819C81.255+226.819+80.9446+226.843+80.6506+226.892C80.3566+226.941+80.03+226.998+79.6706+227.064L79.6706+221.037Z" opacity="1" fill-rule="evenodd" fill="#000000"/>
<path fill-rule="evenodd" fill="#000000" d="M83.5416+286.451L83.5416+271.898L75.0646+286.451L83.5416+286.451ZM92.4596+286.451L96.9186+286.451L96.9186+293.801L92.4596+293.801L92.4596+301.396L83.5416+301.396L83.5416+293.801L65.7056+293.801L65.7056+287.627L79.8176+264.45L92.4596+264.45L92.4596+286.451Z" opacity="1"/>
<path fill-rule="evenodd" opacity="1" d="M92.4596+337.654L79.6706+337.654L79.0336+341.721C79.6216+341.655+80.1606+341.598+80.6506+341.549C81.1406+341.5+81.647+341.476+82.1696+341.476C84.0316+341.476+85.763+341.802+87.3636+342.456C88.9643+343.109+90.3363+344.007+91.4796+345.151C92.623+346.294+93.5213+347.666+94.1746+349.267C94.828+350.867+95.1546+352.615+95.1546+354.51C95.1546+356.502+94.7871+358.299+94.0521+359.9C93.3171+361.5+92.28+362.864+90.9406+363.991C89.6013+365.118+87.968+365.984+86.0406+366.588C84.1133+367.193+81.9736+367.495+79.6216+367.495C77.4003+367.495+75.2851+367.225+73.2761+366.686C71.2671+366.147+69.3806+365.322+67.6166+364.212L69.0376+355.196C70.671+356.6+72.337+357.67+74.0356+358.405C75.7343+359.14+77.3513+359.508+78.8866+359.508C80.8466+359.508+82.3983+358.977+83.5416+357.915C84.685+356.854+85.2566+355.539+85.2566+353.971C85.2566+352.141+84.489+350.663+82.9536+349.536C81.4183+348.409+79.4093+347.846+76.9266+347.846C75.816+347.846+74.6726+347.968+73.4966+348.213C72.3206+348.458+71.161+348.842+70.0176+349.365L73.1046+329.52L92.4596+329.52L92.4596+337.654Z" fill="#000000"/>
</g>
</g>
</svg>
