<?xml version="1.0" encoding="UTF-8" standalone="no"?> <!-- Created with Vectornator for iOS (http://vectornator.io/) --><!DOCTYPE svg PUBLIC "-//W3C//DTD SVG 1.1//EN" "http://www.w3.org/Graphics/SVG/1.1/DTD/svg11.dtd">
<svg height="100%" style="fill-rule:nonzero;clip-rule:evenodd;stroke-linecap:round;stroke-linejoin:round;" xmlns:xlink="http://www.w3.org/1999/xlink" xmlns="http://www.w3.org/2000/svg" xml:space="preserve" width="100%" xmlns:vectornator="http://vectornator.io" version="1.1" viewBox="0 0 372.187 384.408">
<metadata>
<vectornator:setting key="TimeLapseWatermarkDisabled" value="0"/>
<vectornator:setting key="SnapToPoints" value="0"/>
<vectornator:setting key="DimensionsVisible" value="1"/>
<vectornator:setting key="doHistoryDisabled" value="0"/>
<vectornator:setting key="PencilOnly" value="0"/>
<vectornator:setting key="OutlineMode" value="0"/>
<vectornator:setting key="DisplayWhiteBackground" value="0"/>
<vectornator:setting key="CMYKEnabledKey" value="0"/>
<vectornator:setting key="DynamicGuides" value="1"/>
<vectornator:setting key="IsolateActiveLayer" value="0"/>
<vectornator:setting key="Units" value="Points"/>
<vectornator:setting key="RulersVisible" value="1"/>
<vectornator:setting key="SnapToGrid" value="0"/>
<vectornator:setting key="SnapToEdges" value="0"/>
<vectornator:setting key="SnapToGuides" value="1"/>
<vectornator:setting key="GuidesVisible" value="1"/>
</metadata>
<defs/>
<g id="Untitled" vectornator:layerName="Untitled">
<path stroke="#000000" stroke-width="2" d="M364.504+51.341L364.195+304.771C364.192+307.317+361.917+309.379+359.112+309.376L12.7553+308.914C9.95041+308.91+7.67996+306.842+7.68306+304.295L7.99152+50.8652C7.99462+48.3182+10.2701+46.2564+13.075+46.2601L359.432+46.7223C362.236+46.7261+364.507+48.7939+364.504+51.341Z" fill="none" stroke-linecap="butt" opacity="1" stroke-linejoin="miter"/>
<g opacity="1">
<path d="M180.634+98.9998L180.634+82.8561C181.296+82.9665+181.903+83.0631+182.455+83.1458C183.007+83.2286+183.532+83.27+184.028+83.27C185.518+83.27+186.926+83.0631+188.25+82.6491C189.575+82.2352+190.72+81.6695+191.686+80.952C192.652+80.2345+193.411+79.3652+193.963+78.3441C194.515+77.3231+194.791+76.2055+194.791+74.9912C194.791+73.3355+194.239+71.9005+193.135+70.6862C192.031+69.4721+190.541+68.8649+188.664+68.8649C186.953+68.8649+185.587+69.4444+184.566+70.6034C183.546+71.7625+183.035+73.2803+183.035+75.1568L166.56+75.1568C166.56+72.342+167.125+69.7618+168.257+67.4161C169.389+65.0705+170.962+63.0283+172.976+61.2898C174.99+59.5512+177.364+58.1991+180.096+57.2332C182.828+56.2674+185.794+55.7844+188.996+55.7844C192.252+55.7844+195.219+56.3225+197.895+57.3988C200.572+58.475+202.877+59.9238+204.808+61.7451C206.74+63.5665+208.23+65.6638+209.279+68.037C210.328+70.4103+210.852+72.8664+210.852+75.4052C210.852+83.684+205.857+89.5619+195.867+93.039L195.867+98.9998L180.634+98.9998ZM178.978+111.997C178.978+110.673+179.227+109.417+179.723+108.231C180.22+107.044+180.91+106.009+181.793+105.126C182.676+104.243+183.711+103.553+184.898+103.056C186.084+102.56+187.34+102.311+188.664+102.311C189.989+102.311+191.245+102.56+192.431+103.056C193.618+103.553+194.652+104.243+195.536+105.126C196.419+106.009+197.109+107.044+197.606+108.231C198.102+109.417+198.351+110.673+198.351+111.997C198.351+113.322+198.102+114.578+197.606+115.764C197.109+116.95+196.419+117.985+195.536+118.868C194.652+119.752+193.618+120.441+192.431+120.938C191.245+121.435+189.989+121.683+188.664+121.683C187.34+121.683+186.084+121.435+184.898+120.938C183.711+120.441+182.676+119.752+181.793+118.868C180.91+117.985+180.22+116.95+179.723+115.764C179.227+114.578+178.978+113.322+178.978+111.997Z" fill-rule="evenodd" fill="#000000" opacity="1"/>
<path d="M108.84+156.664L102.465+156.664L102.465+147.044L120.198+147.044L120.198+190.739L108.84+190.739L108.84+156.664Z" fill-rule="evenodd" fill="#000000" opacity="1"/>
<path d="M108.055+220.346L94.4368+199.947L108.461+199.947L114.372+211.248L121.674+199.947L135.698+199.947L121.268+220.346L137.553+243.643L123.702+243.643L114.952+229.386L104.694+243.643L90.9597+243.643L108.055+220.346Z" fill-rule="evenodd" fill="#000000" opacity="1"/>
<path d="M130.281+299.851L95.1051+299.851L105.942+288.609C108.801+285.633+111.042+283.113+112.664+281.046C114.287+278.979+115.494+277.23+116.286+275.802C117.078+274.372+117.571+273.213+117.764+272.324C117.957+271.435+118.054+270.682+118.054+270.064C118.054+269.407+117.948+268.77+117.735+268.152C117.523+267.534+117.204+266.983+116.779+266.5C116.354+266.017+115.842+265.631+115.243+265.341C114.645+265.052+113.939+264.907+113.128+264.907C111.583+264.907+110.375+265.408+109.506+266.413C108.637+267.418+108.202+268.673+108.202+270.18C108.202+270.605+108.26+271.223+108.376+272.035L95.9744+272.035C95.9744+269.485+96.3897+267.167+97.2204+265.08C98.051+262.994+99.2197+261.198+100.726+259.691C102.233+258.184+104.02+257.025+106.087+256.214C108.154+255.403+110.424+254.997+112.896+254.997C115.33+254.997+117.581+255.383+119.648+256.156C121.715+256.928+123.501+258.01+125.008+259.401C126.515+260.792+127.693+262.444+128.543+264.356C129.393+266.268+129.818+268.345+129.818+270.586C129.818+272.981+129.306+275.193+128.282+277.221C127.259+279.25+125.626+281.326+123.385+283.451L116.142+290.232L130.281+290.232L130.281+299.851Z" fill-rule="evenodd" fill="#000000" opacity="1"/>
<path d="M139.929+162.254L276.535+162.254C279.126+162.254+281.227+164.089+281.227+166.353L281.227+171.773C281.227+174.037+279.126+175.872+276.535+175.872L139.929+175.872C137.337+175.872+135.235+174.037+135.235+171.773L135.235+166.353C135.235+164.089+137.337+162.254+139.929+162.254Z" fill-rule="evenodd" fill="#000000" opacity="1"/>
<path d="M139.929+216.193L276.535+216.193C279.126+216.193+281.227+218.028+281.227+220.292L281.227+225.711C281.227+227.976+279.126+229.811+276.535+229.811L139.929+229.811C137.337+229.811+135.235+227.976+135.235+225.711L135.235+220.292C135.235+218.028+137.337+216.193+139.929+216.193Z" fill-rule="evenodd" fill="#000000" opacity="1"/>
<path d="M139.929+274.632L276.535+274.632C279.126+274.632+281.227+276.466+281.227+278.731L281.227+284.15C281.227+286.414+279.126+288.25+276.535+288.25L139.929+288.25C137.337+288.25+135.235+286.414+135.235+284.15L135.235+278.731C135.235+276.466+137.337+274.632+139.929+274.632Z" fill-rule="evenodd" fill="#000000" opacity="1"/>
</g>
</g>
</svg>
