<?xml version="1.0" encoding="UTF-8" standalone="no"?> <!-- Created with Vectornator for iOS (http://vectornator.io/) --><!DOCTYPE svg PUBLIC "-//W3C//DTD SVG 1.1//EN" "http://www.w3.org/Graphics/SVG/1.1/DTD/svg11.dtd">
<svg height="100%" style="fill-rule:nonzero;clip-rule:evenodd;stroke-linecap:round;stroke-linejoin:round;" xmlns:xlink="http://www.w3.org/1999/xlink" xmlns="http://www.w3.org/2000/svg" xml:space="preserve" width="100%" xmlns:vectornator="http://vectornator.io" version="1.1" viewBox="0 0 372.187 384.408">
<metadata>
<vectornator:setting key="DimensionsVisible" value="1"/>
<vectornator:setting key="PencilOnly" value="0"/>
<vectornator:setting key="SnapToPoints" value="0"/>
<vectornator:setting key="GuidesVisible" value="1"/>
<vectornator:setting key="CMYKEnabledKey" value="0"/>
<vectornator:setting key="RulersVisible" value="1"/>
<vectornator:setting key="SnapToEdges" value="0"/>
<vectornator:setting key="OutlineMode" value="0"/>
<vectornator:setting key="DisplayWhiteBackground" value="0"/>
<vectornator:setting key="doHistoryDisabled" value="0"/>
<vectornator:setting key="SnapToGuides" value="1"/>
<vectornator:setting key="TimeLapseWatermarkDisabled" value="0"/>
<vectornator:setting key="Units" value="Points"/>
<vectornator:setting key="IsolateActiveLayer" value="0"/>
<vectornator:setting key="SnapToGrid" value="0"/>
<vectornator:setting key="DynamicGuides" value="1"/>
</metadata>
<defs/>
<g id="Untitled" vectornator:layerName="Untitled">
<g opacity="1">
<path stroke="#000000" stroke-width="2" d="M57.7841+3.20256L314.403+3.20256C316.982+3.20256+319.073+5.61288+319.073+8.58616L319.073+375.821C319.073+378.795+316.982+381.205+314.403+381.205L57.7841+381.205C55.205+381.205+53.1142+378.795+53.1142+375.821L53.1142+8.58616C53.1142+5.61288+55.205+3.20256+57.7841+3.20256Z" fill="none" stroke-linecap="butt" opacity="1" stroke-linejoin="miter"/>
<g opacity="1">
<path d="M171.217+81.9025L171.217+62.4025C172.017+62.5359+172.75+62.6525+173.417+62.7525C174.084+62.8525+174.717+62.9025+175.317+62.9025C177.117+62.9025+178.817+62.6525+180.417+62.1525C182.017+61.6525+183.4+60.9692+184.567+60.1025C185.734+59.2359+186.65+58.1859+187.317+56.9525C187.984+55.7192+188.317+54.3692+188.317+52.9025C188.317+50.9025+187.65+49.1692+186.317+47.7025C184.984+46.2359+183.184+45.5025+180.917+45.5025C178.85+45.5025+177.2+46.2025+175.967+47.6025C174.734+49.0025+174.117+50.8359+174.117+53.1025L154.217+53.1025C154.217+49.7025+154.9+46.5859+156.267+43.7525C157.634+40.9192+159.534+38.4525+161.967+36.3525C164.4+34.2525+167.267+32.6192+170.567+31.4525C173.867+30.2859+177.45+29.7025+181.317+29.7025C185.25+29.7025+188.834+30.3525+192.067+31.6525C195.3+32.9525+198.084+34.7025+200.417+36.9025C202.75+39.1025+204.55+41.6359+205.817+44.5025C207.084+47.3692+207.717+50.3359+207.717+53.4025C207.717+63.4025+201.684+70.5025+189.617+74.7025L189.617+81.9025L171.217+81.9025ZM169.217+97.6025C169.217+96.0025+169.517+94.4859+170.117+93.0525C170.717+91.6192+171.55+90.3692+172.617+89.3025C173.684+88.2359+174.934+87.4025+176.367+86.8025C177.8+86.2025+179.317+85.9025+180.917+85.9025C182.517+85.9025+184.034+86.2025+185.467+86.8025C186.9+87.4025+188.15+88.2359+189.217+89.3025C190.284+90.3692+191.117+91.6192+191.717+93.0525C192.317+94.4859+192.617+96.0025+192.617+97.6025C192.617+99.2025+192.317+100.719+191.717+102.152C191.117+103.585+190.284+104.835+189.217+105.902C188.15+106.969+186.9+107.802+185.467+108.402C184.034+109.002+182.517+109.302+180.917+109.302C179.317+109.302+177.8+109.002+176.367+108.402C174.934+107.802+173.684+106.969+172.617+105.902C171.55+104.835+170.717+103.585+170.117+102.152C169.517+100.719+169.217+99.2025+169.217+97.6025Z" fill-rule="evenodd" fill="#000000" opacity="1"/>
<path d="M84.4964+151.555L76.7964+151.555L76.7964+139.935L98.2164+139.935L98.2164+192.715L84.4964+192.715L84.4964+151.555Z" fill-rule="evenodd" fill="#000000" opacity="1"/>
<path d="M83.5492+228.477L67.0992+203.837L84.0392+203.837L91.1792+217.487L99.9992+203.837L116.939+203.837L99.5092+228.477L119.179+256.617L102.449+256.617L91.8792+239.397L79.4892+256.617L62.8992+256.617L83.5492+228.477Z" fill-rule="evenodd" fill="#000000" opacity="1"/>
<path d="M110.396+324.512L67.9064+324.512L80.9964+310.932C84.4497+307.338+87.1564+304.293+89.1164+301.797C91.0764+299.3+92.5347+297.188+93.4914+295.462C94.4481+293.735+95.0431+292.335+95.2764+291.262C95.5097+290.188+95.6264+289.278+95.6264+288.532C95.6264+287.738+95.4981+286.968+95.2414+286.222C94.9847+285.475+94.5997+284.81+94.0864+284.227C93.5731+283.643+92.9547+283.177+92.2314+282.827C91.5081+282.477+90.6564+282.302+89.6764+282.302C87.8097+282.302+86.3514+282.908+85.3014+284.122C84.2514+285.335+83.7264+286.852+83.7264+288.672C83.7264+289.185+83.7964+289.932+83.9364+290.912L68.9564+290.912C68.9564+287.832+69.4581+285.032+70.4614+282.512C71.4647+279.992+72.8764+277.822+74.6964+276.002C76.5164+274.182+78.6747+272.782+81.1714+271.802C83.6681+270.822+86.4097+270.332+89.3964+270.332C92.3364+270.332+95.0547+270.798+97.5514+271.732C100.048+272.665+102.206+273.972+104.026+275.652C105.846+277.332+107.27+279.327+108.296+281.637C109.323+283.947+109.836+286.455+109.836+289.162C109.836+292.055+109.218+294.727+107.981+297.177C106.745+299.627+104.773+302.135+102.066+304.702L93.3164+312.892L110.396+312.892L110.396+324.512Z" fill-rule="evenodd" fill="#000000" opacity="1"/>
<path d="M122.049+158.307L287.056+158.307C290.186+158.307+292.724+160.524+292.724+163.259L292.724+169.805C292.724+172.54+290.186+174.757+287.056+174.757L122.049+174.757C118.918+174.757+116.38+172.54+116.38+169.805L116.38+163.259C116.38+160.524+118.918+158.307+122.049+158.307Z" fill-rule="evenodd" fill="#000000" opacity="1"/>
<path d="M122.049+223.461L287.056+223.461C290.186+223.461+292.724+225.677+292.724+228.412L292.724+234.958C292.724+237.693+290.186+239.91+287.056+239.91L122.049+239.91C118.918+239.91+116.38+237.693+116.38+234.958L116.38+228.412C116.38+225.677+118.918+223.461+122.049+223.461Z" fill-rule="evenodd" fill="#000000" opacity="1"/>
<path d="M122.049+294.049L287.056+294.049C290.186+294.049+292.724+296.265+292.724+299L292.724+305.546C292.724+308.281+290.186+310.498+287.056+310.498L122.049+310.498C118.918+310.498+116.38+308.281+116.38+305.546L116.38+299C116.38+296.265+118.918+294.049+122.049+294.049Z" fill-rule="evenodd" fill="#000000" opacity="1"/>
</g>
</g>
</g>
</svg>
